# xmcd CD database file
#
# Track frame offsets:
#	187
#	36415
#	83275
#	137142
#
# Disc length: 2739 seconds
#
# Revision: 0
# Processed by: cddbd v1.5.1PL2 Copyright (c) Steve Scherf et al.
# Submitted via: CDex 1.50
#
DISCID=290ab104
DTITLE=Benny Bailey - Soul Eyes
DYEAR=1968
DGENRE=Jazz
TTITLE0=Prompt
TTITLE1=Soul Eyes
TTITLE2=Ruts, Grooves, Graves and Dimensions
TTITLE3=Mid - Evil Dance
EXTD=YEAR: 1968
EXTT0=
EXTT1=
EXTT2=
EXTT3=
PLAYORDER=
